<svg version="1.1" id="Layer_1" xmlns="http://www.w3.org/2000/svg" xmlns:xlink="http://www.w3.org/1999/xlink" x="0px" y="0px"
	 width="100%" viewBox="0 0 100 100" enable-background="new 0 0 100 100" xml:space="preserve">
<path fill="#A2EBF9" opacity="1.000000" stroke="none" 
	d="
M12.000000,37.000000 
	C8.185348,34.893589 9.655319,31.976757 11.761624,29.045412 
	C13.890283,28.198257 15.478991,27.676346 16.131142,26.591450 
	C19.171856,21.533030 23.538572,18.470085 28.964951,16.290213 
	C31.020044,15.464644 32.343212,12.817078 34.000000,11.000000 
	C34.362522,10.355982 34.738258,9.145161 35.085579,9.153258 
	C40.024788,9.268405 44.960148,9.548576 49.955887,10.765162 
	C50.015102,12.482994 50.014877,13.224556 49.692039,14.124900 
	C48.444118,14.938300 46.848011,15.472935 46.705860,16.267637 
	C45.962364,20.424294 43.019558,20.163099 39.764793,20.119637 
	C39.008659,20.489407 38.511524,20.749956 37.563461,21.003859 
	C26.805227,20.992359 26.404320,21.204546 23.547132,28.006300 
	C22.377363,28.502773 21.477236,28.880606 20.762011,29.479324 
	C17.810831,31.949770 14.915719,34.487194 12.000000,37.000000 
z"/>
<path fill="#A6D4FB" opacity="1.000000" stroke="none" 
	d="
M12.000001,71.000000 
	C11.253505,69.681534 9.904591,68.372787 9.883110,67.042618 
	C9.835076,64.068108 10.448435,61.082928 11.801446,58.050980 
	C14.872511,58.332420 16.934528,58.664970 19.244984,59.199371 
	C20.613792,60.273525 21.734163,61.145832 22.888691,62.470417 
	C23.179600,67.289314 23.436352,71.655930 23.331707,76.001907 
	C19.763603,73.329674 16.439631,70.936325 12.000001,71.000000 
z"/>
<path fill="#9EE2F9" opacity="1.000000" stroke="none" 
	d="
M11.397308,37.050674 
	C14.915719,34.487194 17.810831,31.949770 20.762011,29.479324 
	C21.477236,28.880606 22.377363,28.502773 23.576120,28.378727 
	C24.332733,29.849516 24.705690,30.964949 25.053902,32.306057 
	C25.029156,32.531734 25.012690,32.986996 24.999519,33.238281 
	C24.970982,33.656609 24.955616,33.823654 24.557213,34.017418 
	C21.783779,38.695736 19.393379,43.347343 16.640381,48.050400 
	C14.851858,48.401230 13.425929,48.700615 12.000000,49.000000 
	C7.670387,45.431690 9.904976,41.198395 11.397308,37.050674 
z"/>
<path fill="#8AD8FA" opacity="1.000000" stroke="none" 
	d="
M73.000000,13.000000 
	C73.729012,12.342193 74.426025,11.160480 75.192345,11.113684 
	C79.395920,10.856986 84.946152,14.975554 86.046150,19.775068 
	C82.519989,21.400188 79.747810,22.703377 76.730698,24.003857 
	C76.485764,24.001144 75.995399,23.992065 75.813904,23.667315 
	C72.418983,19.214931 67.897697,21.651348 63.696903,20.985537 
	C62.932167,20.640356 62.457710,20.331949 62.225410,19.771935 
	C65.978378,17.346884 69.489189,15.173442 73.000000,13.000000 
z"/>
<path fill="#ACDFFC" opacity="1.000000" stroke="none" 
	d="
M11.425550,71.053253 
	C16.439631,70.936325 19.763603,73.329674 23.401512,76.374512 
	C23.802248,77.522324 23.771784,78.276901 23.537918,79.344963 
	C22.889675,82.438972 22.444838,85.219482 22.000000,88.000000 
	C21.184172,88.118553 20.202854,88.591911 19.578209,88.300575 
	C13.584561,85.505005 9.335009,77.009789 11.425550,71.053253 
z"/>
<path fill="#ADEFF9" opacity="1.000000" stroke="none" 
	d="
M33.783768,10.586615 
	C32.343212,12.817078 31.020044,15.464644 28.964951,16.290213 
	C23.538572,18.470085 19.171856,21.533030 16.131142,26.591450 
	C15.478991,27.676346 13.890283,28.198257 12.366507,28.989758 
	C11.626381,27.987156 10.833841,26.925871 10.944480,25.969021 
	C11.959057,17.194508 22.011097,9.015539 33.783768,10.586615 
z"/>
<path fill="#8BCAFA" opacity="1.000000" stroke="none" 
	d="
M76.975624,24.006565 
	C79.747810,22.703377 82.519989,21.400188 85.646088,20.048500 
	C89.277107,18.480743 89.409554,21.416523 89.788261,23.064705 
	C90.291855,25.256418 90.073135,27.614101 89.235779,29.960495 
	C87.163910,30.693811 86.020996,31.367109 84.514328,32.011391 
	C83.419807,31.980412 82.689056,31.978451 81.926498,31.987165 
	C81.894707,31.997843 81.845612,31.952137 81.776985,31.817444 
	C81.395576,31.534958 81.162361,31.636673 80.786057,31.901993 
	C79.833641,31.855177 79.103874,31.894257 78.296280,31.582163 
	C77.831757,30.170397 77.445084,29.109802 77.042511,27.667418 
	C76.998260,26.521936 76.969902,25.758247 76.955139,24.747734 
	C76.968750,24.500912 76.975624,24.006563 76.975624,24.006565 
z"/>
<path fill="#9FD7F9" opacity="1.000000" stroke="none" 
	d="
M11.397012,49.052940 
	C13.425929,48.700615 14.851858,48.401230 16.984154,48.202740 
	C19.408501,48.545502 21.126480,48.787365 22.878084,49.454624 
	C22.883892,51.585766 22.856075,53.291512 22.521763,55.076035 
	C21.142363,56.435711 20.069452,57.716618 18.996544,58.997524 
	C16.934528,58.664970 14.872511,58.332420 12.405247,57.999935 
	C7.800436,55.550217 9.862781,52.251366 11.397012,49.052940 
z"/>
<path fill="#A0E3FB" opacity="1.000000" stroke="none" 
	d="
M21.834801,88.492119 
	C22.444838,85.219482 22.889675,82.438972 23.800526,79.413277 
	C24.442251,79.206276 24.617964,79.244446 24.792362,79.548149 
	C25.515226,81.232246 26.239407,82.650803 27.040190,84.431503 
	C29.488283,87.911575 32.129917,88.084007 35.347397,85.475754 
	C36.789455,85.888046 37.906746,86.343315 38.873558,87.115364 
	C38.148716,88.621429 37.574360,89.810715 37.000000,91.000000 
	C36.451038,91.661201 35.733883,92.976036 35.378597,92.884621 
	C30.778954,91.700996 26.230776,90.317368 21.834801,88.492119 
z"/>
<path fill="#92E2FA" opacity="1.000000" stroke="none" 
	d="
M73.359253,12.537619 
	C69.489189,15.173442 65.978378,17.346884 61.975536,19.764135 
	C61.316761,20.004599 61.150013,20.001249 60.729576,19.749985 
	C58.979122,18.667931 57.482353,17.833796 56.359497,16.989372 
	C60.133732,16.360580 62.990768,15.172667 63.000000,11.000000 
	C65.528618,7.878095 69.959503,8.322583 73.359253,12.537619 
z"/>
<path fill="#A4AAF9" opacity="1.000000" stroke="none" 
	d="
M89.000000,45.000000 
	C89.513451,46.377438 90.623093,47.858963 90.404907,49.108665 
	C90.050400,51.139210 88.826599,53.017986 87.281616,55.109985 
	C86.404564,55.686604 86.215630,56.114052 85.807770,56.445332 
	C85.146149,56.165760 84.703453,55.982361 83.953056,55.544682 
	C82.060226,55.324593 80.475090,55.358788 78.932808,54.924332 
	C79.053650,52.327366 79.131630,50.199051 79.553757,48.062370 
	C80.591148,48.031292 81.284409,48.008575 82.328125,47.939392 
	C84.785721,46.928619 86.892860,45.964310 89.000000,45.000000 
z"/>
<path fill="#92BCF9" opacity="1.000000" stroke="none" 
	d="
M84.878082,32.040405 
	C86.020996,31.367109 87.163910,30.693811 88.653412,30.010258 
	C93.220009,32.834698 91.051231,36.446407 89.210800,39.961296 
	C86.431572,40.370579 84.645264,40.715992 82.534981,41.022175 
	C81.791405,40.871239 81.371819,40.759529 80.959534,40.246674 
	C81.259377,37.572163 81.551918,35.298794 82.114319,33.138474 
	C83.215477,32.847820 84.046776,32.444115 84.878082,32.040405 
z"/>
<path fill="#E286E1" opacity="1.000000" stroke="none" 
	d="
M89.000000,68.000000 
	C89.162498,68.020020 89.409309,67.978493 89.475327,68.068932 
	C92.116531,71.687309 86.910095,84.315514 82.560768,84.792107 
	C82.143280,84.837860 81.677177,84.439896 81.032570,83.327744 
	C80.777710,82.209412 80.723923,82.011269 80.772049,81.613602 
	C80.873970,81.414070 80.976891,80.977943 81.161583,80.946701 
	C81.346275,80.915451 81.719383,80.898643 81.896896,80.869362 
	C82.167168,80.767937 82.348717,80.674583 82.337418,80.627296 
	C82.286697,80.414993 82.181160,80.215775 82.040085,79.759964 
	C81.941566,79.341690 81.898376,79.175293 81.913498,78.574234 
	C82.393982,75.102951 82.816162,72.066315 83.608635,69.026840 
	C85.652618,68.682671 87.326309,68.341331 89.000000,68.000000 
z"/>
<path fill="#A7BFFA" opacity="1.000000" stroke="none" 
	d="
M58.000000,91.000000 
	C55.165302,95.220001 51.553593,93.051231 48.076908,91.232002 
	C46.687984,89.185440 45.324738,88.110603 44.017479,86.872398 
	C44.190781,86.403191 44.358059,86.127937 44.927177,85.696831 
	C45.515110,85.388954 45.751171,85.267509 46.448906,85.190453 
	C49.697109,85.347710 52.483635,85.460571 55.453110,85.734741 
	C56.416504,86.284515 57.196953,86.672989 57.983105,87.455276 
	C57.992538,88.899391 57.996269,89.949699 58.000000,91.000000 
z"/>
<path fill="#9BE7F8" opacity="1.000000" stroke="none" 
	d="
M62.948952,10.396198 
	C62.990768,15.172667 60.133732,16.360580 56.061680,16.825317 
	C53.598190,15.769742 51.806419,14.867930 50.014652,13.966118 
	C50.014877,13.224556 50.015102,12.482994 50.007668,11.370716 
	C51.318466,10.253502 52.627205,8.904586 53.957378,8.883106 
	C56.931885,8.835074 59.917072,9.448434 62.948952,10.396198 
z"/>
<path fill="#C7A7F6" opacity="1.000000" stroke="none" 
	d="
M73.000000,89.000000 
	C71.209251,93.372093 67.938164,93.569351 64.042648,91.186195 
	C63.994644,88.650169 64.000374,87.085030 64.435028,85.457581 
	C66.006546,85.487831 67.149132,85.580391 68.343842,85.691437 
	C68.395958,85.709930 68.715950,85.661522 69.140945,85.548965 
	C70.441544,85.356728 71.317139,85.277039 72.394608,85.247658 
	C72.596481,85.297966 72.986168,85.450508 72.998619,85.623894 
	C73.011070,85.797279 73.078033,86.138435 73.059265,86.495834 
	C73.027008,87.568825 73.013504,88.284409 73.000000,89.000000 
z"/>
<path fill="#ECF3FD" opacity="1.000000" stroke="none" 
	d="
M43.961491,87.035767 
	C45.324738,88.110603 46.687984,89.185440 48.025620,90.630135 
	C44.788925,95.215492 40.891212,93.220177 37.050926,91.602417 
	C37.574360,89.810715 38.148716,88.621429 39.049370,87.065094 
	C39.375668,86.698044 39.741467,86.719261 40.127579,86.826347 
	C41.044617,86.913063 41.575539,86.892693 42.305389,86.874001 
	C42.504318,86.875679 42.902176,86.872025 43.163826,86.933533 
	C43.604145,87.008614 43.782818,87.022186 43.961491,87.035767 
z"/>
<path fill="#98B0F8" opacity="1.000000" stroke="none" 
	d="
M82.858963,41.061401 
	C84.645264,40.715992 86.431572,40.370579 88.608932,40.012585 
	C92.317276,40.859268 91.228584,42.862434 89.627716,44.917801 
	C86.892860,45.964310 84.785721,46.928619 82.334854,47.530449 
	C81.985512,46.075974 81.979889,44.983982 81.992325,43.584774 
	C82.048203,42.868534 82.085999,42.459511 82.312347,41.940102 
	C82.745186,41.631824 82.864540,41.375721 82.858963,41.061401 
z"/>
<path fill="#B3B0F8" opacity="1.000000" stroke="none" 
	d="
M64.006104,85.519882 
	C64.000374,87.085030 63.994644,88.650169 63.994457,90.607658 
	C62.745743,94.735123 60.378380,93.183067 58.068993,91.617065 
	C57.996269,89.949699 57.992538,88.899391 58.261749,87.402588 
	C59.030621,86.464149 59.526554,85.972214 60.388149,85.405487 
	C61.492214,85.255722 62.230614,85.180740 63.226067,85.214859 
	C63.657444,85.389267 63.831776,85.454575 64.006104,85.519882 
z"/>
<path fill="#D9A3F3" opacity="1.000000" stroke="none" 
	d="
M73.073547,89.608734 
	C73.013504,88.284409 73.027008,87.568825 73.326324,86.437881 
	C74.074234,85.753555 74.536331,85.484596 75.327003,85.144867 
	C76.100845,85.034264 76.546112,84.994431 77.171921,85.158134 
	C77.895782,84.898590 78.439095,84.435501 79.272858,83.934097 
	C79.758484,83.888710 79.953674,83.881638 80.102188,84.154678 
	C80.037018,84.623192 80.018509,84.811592 80.000000,85.000000 
	C83.090782,86.089119 82.313736,88.245193 80.421379,89.124123 
	C78.287643,90.115150 75.596054,89.905106 73.073547,89.608734 
z"/>
<path fill="#D287E5" opacity="1.000000" stroke="none" 
	d="
M89.621262,67.853378 
	C87.326309,68.341331 85.652618,68.682671 83.551819,69.051064 
	C83.124702,69.078125 83.027588,69.001762 83.177269,68.724861 
	C83.616318,67.671082 83.905685,66.894196 84.463882,66.064758 
	C85.170387,65.696526 85.608063,65.380844 86.415039,65.052109 
	C87.522881,65.026031 88.261444,65.013016 89.000000,65.000000 
	C89.414169,65.902252 89.828346,66.804512 89.621262,67.853378 
z"/>
<path fill="#B69EF0" opacity="1.000000" stroke="none" 
	d="
M86.026695,56.541504 
	C86.215630,56.114052 86.404564,55.686604 86.796753,55.129578 
	C87.436752,54.317543 87.873505,53.635082 88.310257,52.952625 
	C89.148590,53.557858 90.541588,54.045258 90.700821,54.794758 
	C90.968300,56.053810 90.450951,57.479591 89.377716,58.919403 
	C88.322182,59.004868 88.152733,59.006149 87.773598,58.994225 
	C87.563919,58.981018 87.146065,58.928967 87.073776,58.720039 
	C86.907608,58.215889 86.726097,57.991596 86.345352,57.515388 
	C86.164734,56.975529 86.095718,56.758518 86.026695,56.541504 
z"/>
<path fill="#AC61DE" opacity="1.000000" stroke="none" 
	d="
M80.148857,83.874573 
	C79.953674,83.881638 79.758484,83.888710 78.940277,83.922112 
	C77.873253,83.937988 77.429245,83.927536 76.980156,83.652657 
	C76.961876,83.212402 76.948677,83.036575 77.193794,82.649223 
	C78.524780,82.229507 79.597458,82.021317 80.670135,81.813126 
	C80.723923,82.011269 80.777710,82.209412 80.915749,82.703781 
	C81.150589,83.166664 81.301186,83.333336 81.015945,83.699417 
	C80.580101,83.898842 80.148857,83.874573 80.148857,83.874573 
z"/>
<path fill="#B177DC" opacity="1.000000" stroke="none" 
	d="
M89.225891,64.750000 
	C88.261444,65.013016 87.522881,65.026031 86.329407,64.959763 
	C85.874496,64.880486 85.699615,64.699226 85.809097,64.423416 
	C86.315140,63.464672 86.711700,62.781738 87.327461,62.062817 
	C87.546669,62.026833 87.989128,61.986694 88.023300,62.280476 
	C88.371651,63.049503 88.685829,63.524750 89.000000,64.000000 
	C89.150589,64.166664 89.301186,64.333336 89.225891,64.750000 
z"/>
<path fill="#C08DE9" opacity="1.000000" stroke="none" 
	d="
M89.627716,63.917801 
	C88.685829,63.524750 88.371651,63.049503 88.027794,61.908501 
	C87.993172,60.497639 87.988220,59.752533 87.983276,59.007431 
	C88.152733,59.006149 88.322182,59.004868 88.745819,59.001793 
	C92.317276,59.859268 91.228584,61.862434 89.627716,63.917801 
z"/>
<path fill="#CE81E5" opacity="1.000000" stroke="none" 
	d="
M80.102188,84.154678 
	C80.148857,83.874573 80.580101,83.898842 80.790054,83.949417 
	C80.935768,84.490334 80.871544,84.980659 80.403656,85.235497 
	C80.018509,84.811592 80.037018,84.623192 80.102188,84.154678 
z"/>
<path fill="#AEF1EB" opacity="1.000000" stroke="none" 
	d="
M49.692039,14.124901 
	C51.806419,14.867930 53.598190,15.769742 55.687775,16.835608 
	C57.482353,17.833796 58.979122,18.667931 60.269073,19.750479 
	C55.782177,20.305592 51.505226,20.772430 47.220791,20.856144 
	C44.828217,20.902895 42.423203,20.313274 40.023796,20.010418 
	C43.019558,20.163099 45.962364,20.424294 46.705860,16.267637 
	C46.848011,15.472935 48.444118,14.938300 49.692039,14.124901 
z"/>
<path fill="#A2EFE7" opacity="1.000000" stroke="none" 
	d="
M39.764793,20.119637 
	C42.423203,20.313274 44.828217,20.902895 47.220791,20.856144 
	C51.505226,20.772430 55.782177,20.305592 60.522758,19.998398 
	C61.150013,20.001249 61.316761,20.004599 61.733379,20.015743 
	C62.457710,20.331949 62.932167,20.640356 63.697083,21.222530 
	C63.987549,21.496300 63.988522,21.970808 63.568161,21.998875 
	C54.771103,22.347412 46.394402,22.667881 38.014267,22.658648 
	C38.012016,21.889465 38.013206,21.449986 38.014393,21.010508 
	C38.511524,20.749956 39.008659,20.489407 39.764793,20.119637 
z"/>
<path fill="#82ECD6" opacity="1.000000" stroke="none" 
	d="
M37.563461,21.003859 
	C38.013206,21.449986 38.012016,21.889465 37.741692,22.671314 
	C37.290924,23.020765 37.109283,23.027845 36.574623,23.180336 
	C32.479565,24.315464 27.322952,23.569435 27.738289,30.114651 
	C26.662716,30.840784 25.870682,31.460581 25.078648,32.080379 
	C24.705690,30.964949 24.332733,29.849516 23.930786,28.361658 
	C26.404320,21.204546 26.805227,20.992359 37.563461,21.003859 
z"/>
<path fill="#56B8D9" opacity="1.000000" stroke="none" 
	d="
M24.793678,79.282608 
	C24.617964,79.244446 24.442251,79.206276 24.003929,79.099785 
	C23.771784,78.276901 23.802248,77.522324 23.762907,76.395149 
	C23.436352,71.655930 23.179600,67.289314 22.937168,62.032784 
	C22.910412,59.094337 22.869335,57.045799 22.828259,54.997261 
	C22.856075,53.291512 22.883892,51.585766 22.928833,49.089035 
	C23.282230,47.177773 23.618505,46.057491 24.185947,45.130688 
	C24.614983,45.880268 24.812851,46.436375 25.002945,47.446220 
	C25.615784,51.592941 26.236395,55.285915 26.908527,59.417122 
	C26.915867,61.913197 26.871685,63.971043 26.572945,66.305710 
	C25.810148,70.815895 25.301914,75.049255 24.793678,79.282608 
z"/>
<path fill="#9CCDFA" opacity="1.000000" stroke="none" 
	d="
M22.521765,55.076035 
	C22.869335,57.045799 22.910412,59.094337 22.903011,61.580505 
	C21.734163,61.145832 20.613792,60.273525 19.244984,59.199371 
	C20.069452,57.716618 21.142363,56.435711 22.521765,55.076035 
z"/>
<path fill="#93D7F7" opacity="1.000000" stroke="none" 
	d="
M23.954781,44.937214 
	C23.618505,46.057491 23.282230,47.177773 22.895208,48.663643 
	C21.126480,48.787365 19.408501,48.545502 17.346748,48.151299 
	C19.393379,43.347343 21.783779,38.695736 24.565823,34.432236 
	C24.623240,38.192635 24.289011,41.564922 23.954781,44.937214 
z"/>
<path fill="#6DDFD2" opacity="1.000000" stroke="none" 
	d="
M24.185947,45.130688 
	C24.289011,41.564922 24.623240,38.192635 24.948858,34.405525 
	C24.955616,33.823654 24.970982,33.656609 25.293791,33.362431 
	C26.391560,33.494495 27.181889,33.753689 28.012009,34.465874 
	C28.005959,37.959724 27.960117,41.000580 27.692017,44.264221 
	C26.650078,45.322163 25.830399,46.157322 25.010719,46.992481 
	C24.812851,46.436375 24.614983,45.880268 24.185947,45.130688 
z"/>
<path fill="#DDF3F3" opacity="1.000000" stroke="none" 
	d="
M27.972218,34.012882 
	C27.181889,33.753689 26.391560,33.494495 25.306961,33.111145 
	C25.012690,32.986996 25.029156,32.531734 25.053902,32.306057 
	C25.870682,31.460581 26.662716,30.840784 27.974409,30.343344 
	C28.320118,31.648096 28.146168,32.830490 27.972218,34.012882 
z"/>
<path fill="#79E7D7" opacity="1.000000" stroke="none" 
	d="
M63.988522,21.970808 
	C63.988522,21.970808 63.987549,21.496300 63.987366,21.259304 
	C67.897697,21.651348 72.418983,19.214931 75.930214,23.871162 
	C76.417679,24.655827 76.655525,24.854092 76.941544,24.994556 
	C76.969902,25.758247 76.998260,26.521936 77.029419,27.658974 
	C77.032211,28.032322 77.014450,28.017214 76.672211,28.009090 
	C75.873199,28.004581 75.416443,28.008198 74.676651,27.985989 
	C74.023827,27.884371 73.654030,27.808580 73.174400,27.390335 
	C70.056480,25.733652 67.048393,24.419422 64.027298,22.821602 
	C64.005707,22.348942 63.997116,22.159874 63.988522,21.970808 
z"/>
<path fill="#6BDED9" opacity="1.000000" stroke="none" 
	d="
M76.955147,24.747734 
	C76.655525,24.854092 76.417679,24.655827 76.111710,24.195911 
	C75.995399,23.992065 76.485764,24.001144 76.730698,24.003853 
	C76.975624,24.006563 76.968750,24.500912 76.955147,24.747734 
z"/>
<path fill="#79B8F6" opacity="1.000000" stroke="none" 
	d="
M81.844460,33.025425 
	C81.551918,35.298794 81.259377,37.572163 80.684486,40.355412 
	C79.969162,41.249111 79.536179,41.632931 78.855347,41.843777 
	C78.427719,41.101585 78.247932,40.532372 78.084641,39.518566 
	C78.192123,36.693764 78.283119,34.313549 78.374115,31.933338 
	C79.103874,31.894257 79.833641,31.855177 80.996017,31.912231 
	C81.428635,32.008366 81.845612,31.952137 81.845612,31.952137 
	C81.845612,31.952137 81.894707,31.997843 81.870377,32.246399 
	C81.845505,32.671776 81.844978,32.848602 81.844460,33.025425 
z"/>
<path fill="#409AE2" opacity="1.000000" stroke="none" 
	d="
M78.296272,31.582165 
	C78.283119,34.313549 78.192123,36.693764 77.836304,39.540283 
	C77.571472,40.006592 77.075386,40.038937 77.044006,39.655884 
	C76.979294,38.506310 76.945953,37.739784 76.932381,36.537983 
	C76.953140,34.069084 76.954124,32.035461 76.976219,29.671148 
	C77.003029,28.899378 77.008736,28.458296 77.014450,28.017214 
	C77.014450,28.017214 77.032211,28.032322 77.045311,28.040764 
	C77.445084,29.109802 77.831757,30.170397 78.296272,31.582165 
z"/>
<path fill="#F3DF99" opacity="1.000000" stroke="none" 
	d="
M82.114319,33.138474 
	C81.844978,32.848602 81.845505,32.671776 81.902168,32.235722 
	C82.689056,31.978451 83.419807,31.980412 84.514328,32.011391 
	C84.046776,32.444115 83.215477,32.847820 82.114319,33.138474 
z"/>
<path fill="#92BCF9" opacity="1.000000" stroke="none" 
	d="
M81.776985,31.817444 
	C81.845612,31.952137 81.428635,32.008366 81.218674,31.998127 
	C81.162361,31.636673 81.395576,31.534958 81.776985,31.817444 
z"/>
<path fill="#40C7C0" opacity="1.000000" stroke="none" 
	d="
M24.792362,79.548149 
	C25.301914,75.049255 25.810148,70.815895 26.629152,66.754143 
	C27.594164,70.673828 28.248409,74.421913 28.949997,78.505157 
	C29.996149,79.562881 30.994963,80.285439 31.997044,81.223282 
	C32.000313,81.438560 32.034756,81.867790 32.121056,82.144272 
	C32.465992,82.937981 32.724628,83.455208 32.667290,83.985733 
	C31.605415,84.286118 30.859520,84.573204 29.791336,84.799103 
	C28.633892,84.515060 27.798740,84.292213 26.963589,84.069359 
	C26.239407,82.650803 25.515226,81.232246 24.792362,79.548149 
z"/>
<path fill="#8BD4F6" opacity="1.000000" stroke="none" 
	d="
M27.040188,84.431503 
	C27.798740,84.292213 28.633892,84.515060 30.174042,84.847229 
	C31.913105,85.001617 32.947174,85.046684 34.242485,85.196304 
	C34.676704,85.373482 34.849670,85.446098 35.022636,85.518723 
	C32.129917,88.084007 29.488283,87.911575 27.040188,84.431503 
z"/>
<path fill="#2F90CE" opacity="1.000000" stroke="none" 
	d="
M35.347397,85.475754 
	C34.849670,85.446098 34.676704,85.373482 34.254173,84.938599 
	C34.012138,84.405014 34.019669,84.233673 34.440769,84.047821 
	C36.233913,84.018562 37.613480,84.003830 39.431465,83.995300 
	C41.916164,84.006760 43.962452,84.012016 46.003941,84.299484 
	C45.995174,84.769806 45.991207,84.957932 45.987236,85.146057 
	C45.751171,85.267509 45.515110,85.388954 44.708508,85.544746 
	C43.784416,85.610909 43.430870,85.642738 42.868622,85.632721 
	C42.355473,85.617119 42.117531,85.756775 41.974586,86.003998 
	C42.003071,85.998146 41.985691,85.941925 41.680447,85.960037 
	C40.830624,86.225189 40.286045,86.472229 39.741467,86.719261 
	C39.741467,86.719261 39.375668,86.698044 39.199852,86.748314 
	C37.906746,86.343315 36.789455,85.888046 35.347397,85.475754 
z"/>
<path fill="#FCDB5C" opacity="1.000000" stroke="none" 
	d="
M78.889954,55.392982 
	C80.475090,55.358788 82.060226,55.324593 83.693657,55.756687 
	C83.538216,56.838619 83.334488,57.454266 83.092224,58.153175 
	C83.053696,58.236431 82.972771,58.401112 82.842728,58.299416 
	C82.712685,58.197720 82.445213,58.014767 82.087074,57.976555 
	C81.434959,59.292187 81.140984,60.646034 80.491882,61.983711 
	C79.425941,61.956181 78.715118,61.944820 77.828171,61.727264 
	C77.146721,61.350437 76.641411,61.179806 76.056305,60.756485 
	C75.923401,60.335312 75.870285,60.166832 75.857071,59.740574 
	C75.892006,59.308968 75.887016,59.135139 76.032288,58.723984 
	C76.498749,57.827080 76.814941,57.167507 77.380249,56.411659 
	C78.049561,56.007923 78.469757,55.700455 78.889954,55.392982 
z"/>
<path fill="#3A7DE0" opacity="1.000000" stroke="none" 
	d="
M78.932808,54.924332 
	C78.469757,55.700455 78.049561,56.007923 77.334976,56.061241 
	C76.984398,55.578678 76.928200,55.350262 76.903519,54.674732 
	C76.925720,52.152065 76.916405,50.076511 76.929039,47.583000 
	C76.944992,45.768421 76.939003,44.371811 76.957619,42.608139 
	C77.013275,41.507034 77.044327,40.772987 77.075386,40.038937 
	C77.075386,40.038937 77.571472,40.006592 77.819809,39.984875 
	C78.247932,40.532372 78.427719,41.101585 79.014313,41.916199 
	C79.421127,42.161594 79.767349,42.216301 79.816650,42.498344 
	C80.040398,43.120228 80.214851,43.460064 80.064926,44.025574 
	C79.563568,45.524410 79.386597,46.797573 79.209625,48.070732 
	C79.131630,50.199051 79.053650,52.327366 78.932808,54.924332 
z"/>
<path fill="#89A6F8" opacity="1.000000" stroke="none" 
	d="
M79.553757,48.062370 
	C79.386597,46.797573 79.563568,45.524410 80.330460,44.037849 
	C81.271675,43.846966 81.622971,43.869476 81.974258,43.891991 
	C81.979889,44.983982 81.985512,46.075974 81.984398,47.576912 
	C81.284409,48.008575 80.591148,48.031292 79.553757,48.062370 
z"/>
<path fill="#FDD044" opacity="1.000000" stroke="none" 
	d="
M83.130760,58.069916 
	C83.334488,57.454266 83.538216,56.838619 84.001350,56.010967 
	C84.703453,55.982361 85.146149,56.165760 85.807770,56.445332 
	C86.095718,56.758518 86.164734,56.975529 85.926758,57.555595 
	C84.790085,57.969074 83.960426,58.019497 83.130760,58.069916 
z"/>
<path fill="#F3DF99" opacity="1.000000" stroke="none" 
	d="
M79.767349,42.216301 
	C79.767349,42.216301 79.421127,42.161594 79.262161,42.089172 
	C79.536179,41.632931 79.969162,41.249111 80.677185,40.756554 
	C81.371819,40.759529 81.791405,40.871239 82.534981,41.022175 
	C82.864540,41.375721 82.745186,41.631824 81.917549,41.939842 
	C80.811920,42.105412 80.289635,42.160854 79.767349,42.216301 
z"/>
<path fill="#40BDB3" opacity="1.000000" stroke="none" 
	d="
M83.181519,69.053902 
	C82.816162,72.066315 82.393982,75.102951 81.698860,78.541748 
	C81.425926,78.943909 80.999130,78.858116 80.872459,78.671768 
	C80.530815,78.259605 80.270912,78.113785 79.713959,78.041763 
	C79.293594,78.041458 79.125366,78.047363 78.740593,77.787735 
	C77.324928,76.837128 76.125809,76.152054 75.002457,75.123177 
	C76.057289,72.205917 77.036362,69.632477 78.363586,67.106415 
	C79.794441,66.753662 80.877129,66.353523 82.018356,66.067139 
	C82.076897,66.180901 82.297585,66.310410 82.289604,66.605942 
	C82.530281,67.601562 82.778938,68.301659 83.027588,69.001762 
	C83.027588,69.001762 83.124702,69.078125 83.181519,69.053902 
z"/>
<path fill="#7451D2" opacity="1.000000" stroke="none" 
	d="
M80.772049,81.613602 
	C79.597458,82.021317 78.524780,82.229507 76.824158,82.730202 
	C75.736145,83.234039 75.276070,83.445366 74.782631,83.500244 
	C74.749260,83.343788 74.942566,83.088852 75.048653,82.808807 
	C75.489540,82.034088 75.824341,81.539421 76.570023,81.039627 
	C78.335503,80.874420 79.690109,80.714340 81.052048,80.664062 
	C81.059387,80.773872 80.976891,80.977943 80.976891,80.977943 
	C80.976891,80.977943 80.873970,81.414070 80.772049,81.613602 
z"/>
<path fill="#198BAA" opacity="1.000000" stroke="none" 
	d="
M80.999130,78.858116 
	C80.999130,78.858116 81.425926,78.943909 81.640564,78.976395 
	C81.898376,79.175293 81.941566,79.341690 81.914337,79.968185 
	C81.843918,80.428276 81.719383,80.898643 81.719383,80.898643 
	C81.719383,80.898643 81.346275,80.915451 81.161583,80.946701 
	C80.976891,80.977943 81.059387,80.773872 81.041733,80.384003 
	C81.015762,79.615456 81.007446,79.236786 80.999130,78.858116 
z"/>
<path fill="#CE81E5" opacity="1.000000" stroke="none" 
	d="
M81.896896,80.869362 
	C81.719383,80.898643 81.843918,80.428276 81.969658,80.220055 
	C82.181160,80.215775 82.286697,80.414993 82.337418,80.627296 
	C82.348717,80.674583 82.167168,80.767937 81.896896,80.869362 
z"/>
<path fill="#347ED4" opacity="1.000000" stroke="none" 
	d="
M46.448906,85.190453 
	C45.991207,84.957932 45.995174,84.769806 46.401863,84.294128 
	C47.868286,84.001411 48.931992,83.996254 50.413010,83.995766 
	C52.221825,84.003632 53.613323,84.006828 55.003983,84.260445 
	C55.002968,84.677826 55.002796,84.844772 55.062897,85.155296 
	C55.123169,85.298874 55.270164,85.573433 55.270164,85.573441 
	C52.483635,85.460571 49.697109,85.347710 46.448906,85.190453 
z"/>
<path fill="#87AFF4" opacity="1.000000" stroke="none" 
	d="
M60.022488,85.480278 
	C59.526554,85.972214 59.030621,86.464149 58.256042,87.008781 
	C57.196953,86.672989 56.416504,86.284515 55.453110,85.734741 
	C55.270164,85.573433 55.123169,85.298874 55.484428,85.188339 
	C57.237953,85.211960 58.630219,85.346115 60.022488,85.480278 
z"/>
<path fill="#A0E3FB" opacity="1.000000" stroke="none" 
	d="
M43.077320,85.674561 
	C43.430870,85.642738 43.784416,85.610909 44.356636,85.731171 
	C44.358059,86.127937 44.190781,86.403191 44.017479,86.872398 
	C43.782818,87.022186 43.604145,87.008614 43.226463,86.632370 
	C43.041576,86.064644 43.055691,85.859612 43.061142,85.654648 
	C43.052475,85.654709 43.077320,85.674561 43.077320,85.674561 
z"/>
<path fill="#4862D8" opacity="1.000000" stroke="none" 
	d="
M64.435028,85.457581 
	C63.831776,85.454575 63.657444,85.389267 63.241112,84.949768 
	C63.006584,84.399200 63.014053,84.222816 63.433235,84.033737 
	C65.216911,84.001480 66.588875,83.981926 68.389481,83.973984 
	C69.968452,84.047638 71.118782,84.109680 72.233192,84.426880 
	C72.195755,84.853806 72.194244,85.025574 72.192734,85.197350 
	C71.317139,85.277039 70.441544,85.356728 69.033905,85.473686 
	C68.501854,85.510956 68.291718,85.672943 68.291718,85.672943 
	C67.149132,85.580391 66.006546,85.487831 64.435028,85.457581 
z"/>
<path fill="#CB91EF" opacity="1.000000" stroke="none" 
	d="
M74.998428,85.215630 
	C74.536331,85.484596 74.074234,85.753555 73.345085,86.080475 
	C73.078033,86.138435 73.011070,85.797279 73.037521,85.375931 
	C73.063980,84.954582 73.061424,84.457817 73.095551,84.347557 
	C73.129684,84.237297 73.044464,84.024239 73.259567,84.014122 
	C73.774284,83.910728 73.965073,83.712692 74.280457,83.356209 
	C74.513855,83.302505 74.942566,83.088852 74.942566,83.088852 
	C74.942566,83.088852 74.749260,83.343788 74.816971,83.751968 
	C74.922600,84.511978 74.960510,84.863808 74.998428,85.215630 
z"/>
<path fill="#B3B0F8" opacity="1.000000" stroke="none" 
	d="
M68.343842,85.691437 
	C68.291718,85.672943 68.501854,85.510956 68.608902,85.586243 
	C68.715950,85.661522 68.395958,85.709930 68.343842,85.691437 
z"/>
<path fill="#A670E9" opacity="1.000000" stroke="none" 
	d="
M73.061424,84.457817 
	C73.061424,84.457817 73.063980,84.954582 73.025070,85.202545 
	C72.986168,85.450508 72.596481,85.297966 72.394608,85.247658 
	C72.194244,85.025574 72.195755,84.853806 72.437759,84.477493 
	C72.678246,84.272957 73.061424,84.457817 73.061424,84.457817 
z"/>
<path fill="#A0E3FB" opacity="1.000000" stroke="none" 
	d="
M40.127579,86.826347 
	C40.286045,86.472229 40.830624,86.225189 41.695770,86.194839 
	C42.016338,86.411537 42.106464,86.872330 42.106464,86.872330 
	C41.575539,86.892693 41.044617,86.913063 40.127579,86.826347 
z"/>
<path fill="#689AED" opacity="1.000000" stroke="none" 
	d="
M42.305389,86.874008 
	C42.106464,86.872330 42.016338,86.411537 42.001015,86.176727 
	C41.985691,85.941925 42.003071,85.998146 42.253471,85.908508 
	C42.692520,85.764107 42.881165,85.709343 43.069809,85.654579 
	C43.055691,85.859612 43.041576,86.064644 42.964817,86.570854 
	C42.902176,86.872025 42.504318,86.875679 42.305389,86.874008 
z"/>
<path fill="#ECD27F" opacity="1.000000" stroke="none" 
	d="
M79.816650,42.498344 
	C80.289635,42.160854 80.811920,42.105412 81.729004,42.050228 
	C82.085999,42.459511 82.048203,42.868534 81.992325,43.584774 
	C81.622971,43.869476 81.271675,43.846966 80.654846,43.812176 
	C80.214851,43.460064 80.040398,43.120228 79.816650,42.498344 
z"/>
<path fill="#3C6FD6" opacity="1.000000" stroke="none" 
	d="
M63.021519,84.046440 
	C63.014053,84.222816 63.006584,84.399200 62.984066,84.840675 
	C62.230614,85.180740 61.492214,85.255722 60.388149,85.405487 
	C58.630219,85.346115 57.237953,85.211960 55.424156,85.044762 
	C55.002796,84.844772 55.002968,84.677826 55.418655,84.256866 
	C57.216331,83.986954 58.598495,83.971062 60.360783,83.971367 
	C61.501106,84.007187 62.261314,84.026817 63.021519,84.046440 
z"/>
<path fill="#CB91EF" opacity="1.000000" stroke="none" 
	d="
M76.985237,83.917084 
	C77.429245,83.927536 77.873253,83.937988 78.649834,83.960419 
	C78.439095,84.435501 77.895782,84.898590 77.166916,84.899017 
	C76.982643,84.263275 76.983940,84.090187 76.985237,83.917084 
z"/>
<path fill="#A670E9" opacity="1.000000" stroke="none" 
	d="
M76.980156,83.652664 
	C76.983940,84.090187 76.982643,84.263275 76.986366,84.695473 
	C76.546112,84.994431 76.100845,85.034264 75.327003,85.144867 
	C74.960510,84.863808 74.922600,84.511978 74.850342,83.908424 
	C75.276070,83.445366 75.736145,83.234039 76.565849,82.941734 
	C76.948677,83.036575 76.961876,83.212402 76.980156,83.652664 
z"/>
<path fill="#8F5ECB" opacity="1.000000" stroke="none" 
	d="
M83.177269,68.724861 
	C82.778938,68.301659 82.530281,67.601562 82.552017,66.501541 
	C83.205360,66.052567 83.588295,66.003510 84.020355,66.004555 
	C84.069481,66.054665 84.195061,66.117317 84.195061,66.117317 
	C83.905685,66.894196 83.616318,67.671082 83.177269,68.724861 
z"/>
<path fill="#B177DC" opacity="1.000000" stroke="none" 
	d="
M85.960121,64.972824 
	C85.608063,65.380844 85.170387,65.696526 84.463882,66.064758 
	C84.195061,66.117317 84.069481,66.054665 84.179489,65.781525 
	C84.759544,65.238663 85.229576,64.968941 85.699615,64.699226 
	C85.699615,64.699226 85.874496,64.880486 85.960121,64.972824 
z"/>
<path fill="#FEBA3A" opacity="1.000000" stroke="none" 
	d="
M83.092224,58.153175 
	C83.960426,58.019497 84.790085,57.969074 86.038353,57.878441 
	C86.726097,57.991596 86.907608,58.215889 87.012405,59.065712 
	C86.963600,60.081108 86.903877,60.541901 86.484123,60.998428 
	C85.073654,60.129807 84.023216,59.265457 82.972771,58.401112 
	C82.972771,58.401112 83.053696,58.236431 83.092224,58.153175 
z"/>
<path fill="#C69DAD" opacity="1.000000" stroke="none" 
	d="
M86.844147,61.002697 
	C86.903877,60.541901 86.963600,60.081108 87.084694,59.274639 
	C87.146065,58.928967 87.563919,58.981018 87.773598,58.994225 
	C87.988220,59.752533 87.993172,60.497639 87.993622,61.614716 
	C87.989128,61.986694 87.546669,62.026833 87.259583,61.788933 
	C86.929718,61.368252 86.886932,61.185474 86.844147,61.002697 
z"/>
<path fill="#FDAB39" opacity="1.000000" stroke="none" 
	d="
M86.484123,60.998428 
	C86.886932,61.185474 86.929718,61.368252 87.040375,61.824913 
	C86.711700,62.781738 86.315140,63.464672 85.809097,64.423416 
	C85.229576,64.968941 84.759544,65.238663 84.130371,65.731415 
	C83.588295,66.003510 83.205360,66.052567 82.559998,66.206017 
	C82.297585,66.310410 82.076897,66.180901 82.001137,65.768265 
	C81.603317,64.632195 81.281258,63.908764 81.322906,62.995293 
	C81.939484,61.208427 82.192352,59.611595 82.445213,58.014767 
	C82.445213,58.014767 82.712685,58.197720 82.842728,58.299416 
	C84.023216,59.265457 85.073654,60.129807 86.484123,60.998428 
z"/>
<path fill="#78E2DA" opacity="1.000000" stroke="none" 
	d="
M63.568161,21.998875 
	C63.997116,22.159874 64.005707,22.348942 63.997765,23.133400 
	C63.049061,24.770874 62.116894,25.812954 60.700180,26.882580 
	C54.147831,26.913647 48.080021,26.917170 41.900757,26.795673 
	C41.546295,26.803942 41.303280,26.937231 41.060478,27.256689 
	C41.060692,27.442858 41.057568,27.815187 40.735256,27.759605 
	C39.251179,26.147657 38.089413,24.591291 36.927647,23.034925 
	C37.109283,23.027845 37.290924,23.020765 37.745132,23.001019 
	C46.394402,22.667881 54.771103,22.347412 63.568161,21.998875 
z"/>
<path fill="#FDFDFD" opacity="1.000000" stroke="none" 
	d="
M36.574623,23.180336 
	C38.089413,24.591291 39.251179,26.147657 41.196388,27.824291 
	C44.437119,27.964594 46.904026,28.131453 49.349499,27.971239 
	C53.301983,27.712294 57.240379,27.238241 61.184723,26.855034 
	C62.116894,25.812954 63.049061,24.770874 64.010765,23.416992 
	C67.048393,24.419422 70.056480,25.733652 73.090965,27.846546 
	C73.390381,31.427477 73.663399,34.209740 73.896317,37.449539 
	C73.910393,41.273174 73.964569,44.639267 73.945435,48.448292 
	C73.867744,51.563725 73.863373,54.236225 73.636375,56.905609 
	C73.413757,56.902489 72.989090,57.036419 72.750687,57.116993 
	C72.307838,57.459003 72.103401,57.720440 71.661858,58.140484 
	C70.825806,58.929916 70.226852,59.560745 69.627899,60.191574 
	C69.413925,59.793228 69.199959,59.394886 68.993851,58.683487 
	C67.658142,58.913277 66.314568,59.456123 64.709427,60.047981 
	C64.274643,60.135368 64.101402,60.173744 63.623283,60.174728 
	C62.973904,60.526237 62.629402,60.915142 62.284897,61.304047 
	C62.804420,61.575745 63.323944,61.847446 63.885574,62.520046 
	C64.045876,66.063194 64.345169,69.303757 59.932228,69.667931 
	C55.475349,66.766052 51.169411,68.148872 46.855919,68.450684 
	C46.854435,68.982956 46.852947,69.515221 46.851460,70.047493 
	C51.251339,70.047493 55.651218,70.047493 60.099709,70.340973 
	C60.113071,71.718300 60.077824,72.802132 60.017868,74.197189 
	C59.969383,74.715187 59.945610,74.921959 59.780838,75.451111 
	C59.885101,77.423706 60.130363,79.073929 59.969284,80.792152 
	C57.043419,80.939659 54.523891,81.019173 51.555733,81.020676 
	C48.074574,80.975410 45.042049,81.008133 41.715141,80.767410 
	C38.278427,80.665306 35.136101,80.836647 31.993774,81.007996 
	C30.994963,80.285439 29.996149,79.562881 28.978802,78.025192 
	C28.644142,70.806442 28.328018,64.402817 28.047222,57.535858 
	C28.026459,52.728828 27.970369,48.385132 27.914276,44.041439 
	C27.960117,41.000580 28.005959,37.959724 28.012009,34.465874 
	C28.146168,32.830490 28.320118,31.648096 28.257946,30.237007 
	C27.322952,23.569435 32.479565,24.315464 36.574623,23.180336 
M62.953659,50.016460 
	C62.953659,50.016460 62.894016,50.057144 62.944386,50.657276 
	C63.305191,51.049431 63.665993,51.441589 64.824295,51.962677 
	C66.286720,51.317501 67.749153,50.672329 69.723061,49.677525 
	C69.510223,48.773018 69.297386,47.868507 68.695488,46.408508 
	C67.662811,46.596870 66.630135,46.785233 65.299088,46.933929 
	C65.299088,46.933929 65.005447,47.000042 64.293571,47.015938 
	C63.591732,47.703831 62.889893,48.391727 62.247147,49.544388 
	C62.412048,49.836933 62.659336,50.015274 62.953659,50.016460 
M36.447468,62.873135 
	C36.658524,62.902279 36.869576,62.931423 37.345562,63.678909 
	C39.676857,63.807610 42.682625,65.320427 42.979012,60.334377 
	C42.273487,59.549164 41.567966,58.763954 40.342964,57.961540 
	C40.169781,57.956581 39.996601,57.951622 39.473499,57.247719 
	C37.742008,57.247719 36.010517,57.247719 34.158356,57.247719 
	C34.158356,58.764156 34.158356,59.892479 34.031860,61.726757 
	C34.224998,62.421440 34.418137,63.116127 34.611271,63.810810 
	C35.010281,63.498806 35.409294,63.186798 36.447468,62.873135 
M41.599342,73.809280 
	C41.775356,72.854614 41.951370,71.899956 42.027370,70.115166 
	C40.665268,66.092575 36.857334,67.587234 35.223724,68.435341 
	C33.621525,69.267136 33.325317,72.614525 32.177013,75.577629 
	C34.432423,75.121696 35.228733,74.960724 36.799004,74.930321 
	C38.198429,74.611092 39.597855,74.291870 41.599342,73.809280 
M41.683834,45.340733 
	C40.454830,45.276329 39.225822,45.211922 37.219891,45.029011 
	C34.312313,44.756508 32.687836,45.794346 33.059555,49.673294 
	C33.358257,50.472626 33.656960,51.271957 34.440922,52.657299 
	C35.956242,52.710091 37.471558,52.762878 39.744953,52.929451 
	C42.554394,53.040737 43.328655,51.528366 42.984936,48.350235 
	C42.703049,47.543621 42.421165,46.737007 41.683834,45.340733 
M61.631306,37.798954 
	C63.681740,39.506733 65.727409,39.588905 66.595268,36.870674 
	C66.890678,35.945408 65.523926,33.559162 64.573891,33.342319 
	C61.807808,32.710953 60.770187,34.447151 61.631306,37.798954 
M35.099476,36.424248 
	C36.455559,37.181450 37.767738,38.061195 39.209972,38.577957 
	C39.456863,38.666420 40.845989,37.024117 40.683422,36.497417 
	C40.336185,35.372360 39.272743,33.603230 38.584942,33.639912 
	C37.386730,33.703812 36.250671,34.933235 35.099476,36.424248 
M48.256863,46.957855 
	C51.892307,46.957855 55.527752,46.957855 59.163193,46.957855 
	C59.154743,46.425198 59.146290,45.892540 59.137836,45.359882 
	C55.161789,45.359882 51.185738,45.359882 47.209686,45.359882 
	C47.299133,45.848675 47.388580,46.337463 48.256863,46.957855 
z"/>
<path fill="#DDF3F3" opacity="1.000000" stroke="none" 
	d="
M28.011896,57.999195 
	C28.328018,64.402817 28.644142,70.806442 28.931461,77.690033 
	C28.248409,74.421913 27.594164,70.673828 26.883713,66.477310 
	C26.871685,63.971043 26.915867,61.913197 27.046144,59.193253 
	C27.425459,58.353836 27.718678,58.176517 28.011896,57.999195 
z"/>
<path fill="#5ED5CE" opacity="1.000000" stroke="none" 
	d="
M28.047224,57.535858 
	C27.718678,58.176517 27.425459,58.353836 26.994623,58.755024 
	C26.236395,55.285915 25.615784,51.592941 25.002945,47.446220 
	C25.830399,46.157322 26.650078,45.322163 27.692019,44.264221 
	C27.970369,48.385132 28.026459,52.728828 28.047224,57.535858 
z"/>
<path fill="#C8E8ED" opacity="1.000000" stroke="none" 
	d="
M73.936417,36.992004 
	C73.663399,34.209740 73.390381,31.427477 73.200790,28.189001 
	C73.654030,27.808580 74.023827,27.884371 74.695496,28.359280 
	C75.044518,29.503941 75.091690,30.249483 75.097351,31.418453 
	C75.008690,33.539665 74.961533,35.237453 74.924194,36.955685 
	C74.933998,36.976128 74.978065,36.974846 74.717850,36.990795 
	C74.283890,37.001831 74.110153,36.996918 73.936417,36.992004 
z"/>
<path fill="#6BDED9" opacity="1.000000" stroke="none" 
	d="
M75.138855,30.995028 
	C75.091690,30.249483 75.044518,29.503941 74.978516,28.385105 
	C75.416443,28.008198 75.873199,28.004581 76.672203,28.009090 
	C77.008736,28.458296 77.003029,28.899378 76.741119,29.779924 
	C76.036224,30.477936 75.587540,30.736481 75.138855,30.995028 
z"/>
<path fill="#5CD5D3" opacity="1.000000" stroke="none" 
	d="
M75.097351,31.418453 
	C75.587540,30.736481 76.036224,30.477936 76.720016,30.110613 
	C76.954124,32.035461 76.953140,34.069084 76.600693,36.544388 
	C75.804283,36.969128 75.359329,36.952183 74.914383,36.935242 
	C74.961533,35.237453 75.008690,33.539665 75.097351,31.418453 
z"/>
<path fill="#50CAD1" opacity="1.000000" stroke="none" 
	d="
M74.924194,36.955685 
	C75.359329,36.952183 75.804283,36.969128 76.580917,36.979664 
	C76.945953,37.739784 76.979294,38.506310 77.044006,39.655884 
	C77.044327,40.772987 77.013275,41.507034 76.602203,42.507286 
	C75.807480,40.840611 75.392769,38.907730 74.978058,36.974846 
	C74.978065,36.974846 74.933998,36.976128 74.924194,36.955685 
z"/>
<path fill="#DFECF2" opacity="1.000000" stroke="none" 
	d="
M31.997044,81.223274 
	C35.136101,80.836647 38.278427,80.665306 41.701099,80.995995 
	C41.981441,81.498032 41.889191,81.946701 41.527428,81.966125 
	C40.444305,82.039406 39.722946,82.093246 38.568657,82.088654 
	C36.102070,81.976074 34.068413,81.921936 32.034756,81.867790 
	C32.034756,81.867790 32.000313,81.438560 31.997044,81.223274 
z"/>
<path fill="#39B9C2" opacity="1.000000" stroke="none" 
	d="
M32.121056,82.144272 
	C34.068413,81.921936 36.102070,81.976074 38.567753,82.394974 
	C38.997536,83.169525 38.995293,83.579308 38.993050,83.989090 
	C37.613480,84.003830 36.233913,84.018562 34.179810,84.023087 
	C33.331276,83.999397 33.157272,83.985909 32.983269,83.972427 
	C32.724628,83.455208 32.465992,82.937981 32.121056,82.144272 
z"/>
<path fill="#369ECD" opacity="1.000000" stroke="none" 
	d="
M32.667290,83.985733 
	C33.157272,83.985909 33.331276,83.999397 33.766235,84.037613 
	C34.019669,84.233673 34.012138,84.405014 33.992928,84.834053 
	C32.947174,85.046684 31.913105,85.001617 30.496330,84.908417 
	C30.859520,84.573204 31.605415,84.286118 32.667290,83.985733 
z"/>
<path fill="#38ADC9" opacity="1.000000" stroke="none" 
	d="
M39.431465,83.995300 
	C38.995293,83.579308 38.997536,83.169525 39.000679,82.453415 
	C39.722946,82.093246 40.444305,82.039406 41.978512,81.981529 
	C45.187202,81.994598 47.583046,82.011696 49.987309,82.356194 
	C49.995712,83.119423 49.995705,83.555260 49.995693,83.991089 
	C48.931992,83.996254 47.868286,84.001411 46.406662,84.011925 
	C43.962452,84.012016 41.916164,84.006760 39.431465,83.995300 
z"/>
<path fill="#A7BFFA" opacity="1.000000" stroke="none" 
	d="
M43.061142,85.654648 
	C42.881165,85.709343 42.692520,85.764107 42.224987,85.914360 
	C42.117531,85.756775 42.355473,85.617119 42.868622,85.632721 
	C43.077320,85.674561 43.052475,85.654709 43.061142,85.654648 
z"/>
<path fill="#A0EEBB" opacity="1.000000" stroke="none" 
	d="
M60.042576,73.885971 
	C60.077824,72.802132 60.113071,71.718300 60.074318,70.320351 
	C60.000317,70.006241 60.055935,70.053551 60.055935,70.053551 
	C64.345169,69.303757 64.045876,66.063194 64.182663,62.485382 
	C64.636162,62.032761 64.834679,62.015701 65.337280,61.938843 
	C66.093575,61.259354 66.545784,60.639664 67.179016,59.790432 
	C67.902023,59.372772 68.444000,59.184658 68.985985,58.996540 
	C69.199959,59.394886 69.413925,59.793228 69.627899,60.191574 
	C70.226852,59.560745 70.825806,58.929916 71.884033,58.032803 
	C72.623344,57.580425 72.838600,57.337059 72.989090,57.036419 
	C72.989090,57.036419 73.413757,56.902489 73.900764,56.864105 
	C74.563919,56.797955 74.740067,56.770191 74.956863,57.052975 
	C75.292351,57.896122 75.587189,58.428719 75.882027,58.961311 
	C75.887016,59.135139 75.892006,59.308968 75.530426,59.741821 
	C71.054573,62.951927 68.425613,66.791908 67.700188,72.000183 
	C66.926308,72.588791 66.441742,73.125839 65.721695,73.730667 
	C65.486221,73.798439 65.001160,73.867393 64.602417,73.687485 
	C63.334259,73.581398 62.464840,73.655220 61.334541,73.647171 
	C60.729965,73.672188 60.386269,73.779076 60.042576,73.885971 
z"/>
<path fill="#9BECBA" opacity="1.000000" stroke="none" 
	d="
M67.989494,71.948639 
	C68.425613,66.791908 71.054573,62.951927 75.490509,59.999596 
	C75.870285,60.166832 75.923401,60.335312 76.023270,61.037224 
	C76.295563,62.055077 76.521118,62.539497 76.745407,63.236687 
	C76.744141,63.449448 76.742996,63.874981 76.440178,63.992958 
	C73.421402,66.723495 70.705444,69.336067 67.989494,71.948639 
z"/>
<path fill="#FCB83C" opacity="1.000000" stroke="none" 
	d="
M76.742996,63.874981 
	C76.742996,63.874981 76.744141,63.449448 77.006454,63.120270 
	C77.513947,62.505215 77.759125,62.219337 78.004303,61.933460 
	C78.715118,61.944820 79.425941,61.956181 80.540894,62.278381 
	C80.949760,62.787922 80.954483,62.986629 80.959198,63.185333 
	C81.281258,63.908764 81.603317,64.632195 81.942596,65.654495 
	C80.877129,66.353523 79.794441,66.753662 78.414474,66.746613 
	C77.659134,65.517944 77.201065,64.696465 76.742996,63.874981 
z"/>
<path fill="#8BE1B3" opacity="1.000000" stroke="none" 
	d="
M76.032288,58.723984 
	C75.587189,58.428719 75.292351,57.896122 74.981613,56.802834 
	C75.021278,55.910435 75.076851,55.578728 75.421638,55.211063 
	C76.097908,55.157352 76.484955,55.139603 76.872002,55.121849 
	C76.928200,55.350262 76.984398,55.578678 77.085861,56.157509 
	C76.814941,57.167507 76.498749,57.827080 76.032288,58.723984 
z"/>
<path fill="#FEF5E4" opacity="1.000000" stroke="none" 
	d="
M81.322906,62.995293 
	C80.954483,62.986629 80.949760,62.787922 80.896019,62.294548 
	C81.140984,60.646034 81.434959,59.292187 82.087074,57.976555 
	C82.192352,59.611595 81.939484,61.208427 81.322906,62.995293 
z"/>
<path fill="#FBCA49" opacity="1.000000" stroke="none" 
	d="
M77.828171,61.727264 
	C77.759125,62.219337 77.513947,62.505215 77.007721,62.907509 
	C76.521118,62.539497 76.295563,62.055077 76.103050,61.289917 
	C76.641411,61.179806 77.146721,61.350437 77.828171,61.727264 
z"/>
<path fill="#45BACA" opacity="1.000000" stroke="none" 
	d="
M74.717842,36.990795 
	C75.392769,38.907730 75.807480,40.840611 76.577606,42.874344 
	C76.939003,44.371811 76.944992,45.768421 76.689514,47.704636 
	C75.950813,48.498230 75.473579,48.752228 74.876007,48.801025 
	C74.557205,48.340130 74.311569,48.143311 74.018753,48.005363 
	C73.964569,44.639267 73.910393,41.273174 73.896317,37.449539 
	C74.110153,36.996918 74.283890,37.001831 74.717842,36.990795 
z"/>
<path fill="#46AED5" opacity="1.000000" stroke="none" 
	d="
M74.996346,49.006226 
	C75.473579,48.752228 75.950813,48.498230 76.667572,48.122597 
	C76.916405,50.076511 76.925720,52.152065 76.903519,54.674732 
	C76.484955,55.139603 76.097908,55.157352 75.380844,54.758850 
	C75.032661,52.563805 75.014503,50.785019 74.996346,49.006226 
z"/>
<path fill="#7EDFB9" opacity="1.000000" stroke="none" 
	d="
M76.440178,63.992958 
	C77.201065,64.696465 77.659134,65.517944 78.066315,66.699226 
	C77.036362,69.632477 76.057289,72.205917 74.578934,75.082382 
	C73.550285,75.536240 73.020920,75.687096 72.491470,75.863571 
	C72.491386,75.889191 72.504913,75.938805 72.333328,75.635071 
	C71.098640,74.942505 70.035538,74.553673 68.596657,74.091248 
	C67.466309,73.899391 66.711739,73.781143 65.957169,73.662895 
	C66.441742,73.125839 66.926308,72.588791 67.700188,72.000183 
	C70.705444,69.336067 73.421402,66.723495 76.440178,63.992958 
z"/>
<path fill="#2891B8" opacity="1.000000" stroke="none" 
	d="
M80.872459,78.671768 
	C81.007446,79.236786 81.015762,79.615456 81.034393,80.274193 
	C79.690109,80.714340 78.335503,80.874420 76.273987,80.980270 
	C75.058487,80.644333 74.549904,80.362617 74.037598,79.803864 
	C74.010536,79.344414 73.987206,79.161995 73.966156,78.989883 
	C73.968437,79.000183 73.932251,78.983627 74.241684,78.892563 
	C76.012016,78.846657 77.472900,78.891823 79.156265,78.854462 
	C79.657898,78.598228 79.853683,78.356911 79.966095,78.047966 
	C80.270912,78.113785 80.530815,78.259605 80.872459,78.671768 
z"/>
<path fill="#10657F" opacity="1.000000" stroke="none" 
	d="
M78.933792,78.936996 
	C77.472900,78.891823 76.012016,78.846657 74.126434,78.567505 
	C73.298347,77.501663 72.894951,76.669807 72.491554,75.837944 
	C73.020920,75.687096 73.550285,75.536240 74.503174,75.426193 
	C76.125809,76.152054 77.324928,76.837128 78.736420,78.008560 
	C78.948784,78.494926 78.933792,78.936996 78.933792,78.936996 
z"/>
<path fill="#147B99" opacity="1.000000" stroke="none" 
	d="
M79.156265,78.854462 
	C78.933792,78.936996 78.948784,78.494926 78.952957,78.274094 
	C79.125366,78.047363 79.293594,78.041458 79.713959,78.041763 
	C79.853683,78.356911 79.657898,78.598228 79.156265,78.854462 
z"/>
<path fill="#1C40BB" opacity="1.000000" stroke="none" 
	d="
M74.041328,80.080910 
	C74.549904,80.362617 75.058487,80.644333 75.863106,80.985397 
	C75.824341,81.539421 75.489540,82.034088 75.048653,82.808807 
	C74.942566,83.088852 74.513855,83.302505 74.176933,83.077850 
	C73.535141,82.618591 73.230270,82.383980 72.584625,82.123253 
	C71.198174,81.790070 70.152496,81.483009 69.434372,81.131439 
	C70.539207,80.744614 71.316475,80.402290 72.272781,80.029312 
	C72.451820,79.998665 72.807716,79.925758 73.115234,79.971611 
	C73.628937,80.038612 73.835129,80.059761 74.041328,80.080910 
z"/>
<path fill="#369ECD" opacity="1.000000" stroke="none" 
	d="
M50.413010,83.995758 
	C49.995705,83.555260 49.995712,83.119423 50.324448,82.346527 
	C51.102268,82.003654 51.551365,81.997849 52.444275,81.994530 
	C55.254349,82.005142 57.620598,82.013268 59.988178,82.343971 
	C59.986561,83.096085 59.983612,83.525627 59.980663,83.955170 
	C58.598495,83.971062 57.216331,83.986954 55.419495,84.006439 
	C53.613323,84.006828 52.221825,84.003632 50.413010,83.995758 
z"/>
<path fill="#307ACE" opacity="1.000000" stroke="none" 
	d="
M69.106812,81.175949 
	C70.152496,81.483009 71.198174,81.790070 72.605804,82.434250 
	C72.993317,83.188980 73.018890,83.606613 73.044464,84.024239 
	C73.044464,84.024239 73.129684,84.237297 73.095551,84.347557 
	C73.061424,84.457817 72.678246,84.272957 72.473679,84.222336 
	C71.118782,84.109680 69.968452,84.047638 68.223198,83.748276 
	C67.076622,83.006393 66.524971,82.501831 66.178864,81.892845 
	C66.645927,81.617058 66.858719,81.398293 67.312531,81.039413 
	C67.995079,80.846153 68.387871,80.745605 68.865097,80.776016 
	C68.949516,80.906960 69.106812,81.175949 69.106812,81.175949 
z"/>
<path fill="#348FD1" opacity="1.000000" stroke="none" 
	d="
M65.973320,81.997261 
	C66.524971,82.501831 67.076622,83.006393 67.794556,83.736671 
	C66.588875,83.981926 65.216911,84.001480 63.433235,84.033737 
	C62.261314,84.026817 61.501106,84.007187 60.360783,83.971359 
	C59.983612,83.525627 59.986561,83.096085 60.416924,82.336960 
	C62.554001,82.003990 64.263657,82.000626 65.973320,81.997261 
z"/>
<path fill="#2667CD" opacity="1.000000" stroke="none" 
	d="
M73.259567,84.014122 
	C73.018890,83.606613 72.993317,83.188980 72.946571,82.460358 
	C73.230270,82.383980 73.535141,82.618591 73.943535,83.131561 
	C73.965073,83.712692 73.774284,83.910728 73.259567,84.014122 
z"/>
<path fill="#51AFC4" opacity="1.000000" stroke="none" 
	d="
M60.700180,26.882580 
	C57.240379,27.238241 53.301983,27.712294 49.349499,27.971239 
	C46.904026,28.131453 44.437119,27.964594 41.518700,27.879875 
	C41.057568,27.815187 41.060692,27.442858 41.298691,27.221994 
	C41.536690,27.001131 42.012211,26.920692 42.012211,26.920692 
	C48.080021,26.917170 54.147831,26.913647 60.700180,26.882580 
z"/>
<path fill="#61D7D4" opacity="1.000000" stroke="none" 
	d="
M41.900757,26.795671 
	C42.012211,26.920692 41.536690,27.001131 41.298477,27.035826 
	C41.303280,26.937231 41.546295,26.803942 41.900757,26.795671 
z"/>
<path fill="#FED957" opacity="1.000000" stroke="none" 
	d="
M36.025043,74.799744 
	C35.228733,74.960724 34.432423,75.121696 32.177013,75.577629 
	C33.325317,72.614525 33.621525,69.267136 35.223724,68.435341 
	C36.857334,67.587234 40.665268,66.092575 41.693512,70.551224 
	C40.847969,71.010994 40.336285,71.034698 39.490669,71.052750 
	C38.109272,72.042213 37.061802,73.037331 36.017952,74.224258 
	C36.021580,74.416077 36.025043,74.799744 36.025043,74.799744 
z"/>
<path fill="#FEE4E2" opacity="1.000000" stroke="none" 
	d="
M61.451141,37.463913 
	C60.770187,34.447151 61.807808,32.710953 64.573891,33.342319 
	C65.523926,33.559162 66.890678,35.945408 66.595268,36.870674 
	C65.727409,39.588905 63.681740,39.506733 61.451141,37.463913 
z"/>
<path fill="#FEE3E0" opacity="1.000000" stroke="none" 
	d="
M35.094017,36.049171 
	C36.250671,34.933235 37.386730,33.703812 38.584942,33.639912 
	C39.272743,33.603230 40.336185,35.372360 40.683422,36.497417 
	C40.845989,37.024117 39.456863,38.666420 39.209972,38.577957 
	C37.767738,38.061195 36.455559,37.181450 35.094017,36.049171 
z"/>
<path fill="#DDF4E2" opacity="1.000000" stroke="none" 
	d="
M60.025707,70.026871 
	C55.651218,70.047493 51.251339,70.047493 46.851460,70.047493 
	C46.852947,69.515221 46.854435,68.982956 46.855919,68.450684 
	C51.169411,68.148872 55.475349,66.766052 59.932228,69.667931 
	C60.055935,70.053551 60.000317,70.006241 60.025707,70.026871 
z"/>
<path fill="#E2F5E6" opacity="1.000000" stroke="none" 
	d="
M47.867443,46.892056 
	C47.388580,46.337463 47.299133,45.848675 47.209686,45.359882 
	C51.185738,45.359882 55.161789,45.359882 59.137836,45.359882 
	C59.146290,45.892540 59.154743,46.425198 59.163193,46.957855 
	C55.527752,46.957855 51.892307,46.957855 47.867443,46.892056 
z"/>
<path fill="#2598B1" opacity="1.000000" stroke="none" 
	d="
M60.017868,74.197189 
	C60.386269,73.779076 60.729965,73.672188 61.620056,73.901466 
	C63.100327,74.503975 64.034203,74.770317 65.272583,75.183983 
	C66.412254,75.658569 67.247429,75.985817 68.085609,76.506912 
	C68.088623,76.700760 68.116837,77.090515 68.062485,77.405991 
	C67.992584,78.147987 67.977036,78.574516 67.961113,79.009941 
	C67.960747,79.018837 67.940620,79.019981 67.578972,79.027405 
	C66.048241,78.782410 64.879150,78.529991 63.479786,78.074791 
	C62.140282,76.957581 61.031055,76.043159 59.921833,75.128738 
	C59.945610,74.921959 59.969383,74.715187 60.017868,74.197189 
z"/>
<path fill="#448BC4" opacity="1.000000" stroke="none" 
	d="
M66.178864,81.892845 
	C64.263657,82.000626 62.554001,82.003990 60.415596,82.014374 
	C57.620598,82.013268 55.254349,82.005142 52.445175,81.771240 
	C52.002254,81.545456 52.004368,81.098679 52.004368,81.098679 
	C54.523891,81.019173 57.043419,80.939659 60.309040,80.852753 
	C61.747261,80.844353 62.439388,80.843353 63.443985,80.921524 
	C64.845238,81.044518 65.934006,81.088326 67.022781,81.132133 
	C66.858719,81.398293 66.645927,81.617058 66.178864,81.892845 
z"/>
<path fill="#804AF2" opacity="1.000000" stroke="none" 
	d="
M42.860226,49.024590 
	C43.328655,51.528366 42.554394,53.040737 39.239872,52.642685 
	C38.487637,51.894573 38.240479,51.433228 38.184433,50.747669 
	C38.981625,50.032471 39.587708,49.541481 40.527241,49.044647 
	C41.527203,49.034065 42.193714,49.029327 42.860226,49.024590 
z"/>
<path fill="#DE324F" opacity="1.000000" stroke="none" 
	d="
M42.845325,60.998886 
	C42.682625,65.320427 39.676857,63.807610 37.438034,62.859200 
	C37.359924,61.409790 37.189339,60.780090 37.006111,60.173645 
	C36.993469,60.196903 36.979118,60.145771 37.001869,60.120026 
	C37.024616,60.094280 36.974834,60.046917 37.187096,60.282269 
	C37.610485,60.509548 37.821613,60.501480 38.020462,60.731812 
	C38.303711,61.321815 38.599243,61.673416 39.237404,62.114998 
	C40.101574,61.803440 40.623119,61.401901 41.428101,60.998402 
	C42.089470,60.997257 42.467400,60.998074 42.845325,60.998886 
z"/>
<path fill="#FD6064" opacity="1.000000" stroke="none" 
	d="
M34.158356,61.020802 
	C34.158356,59.892479 34.158356,58.764156 34.158356,57.247719 
	C36.010517,57.247719 37.742008,57.247719 39.304398,57.611080 
	C38.415142,58.665264 37.694988,59.356091 36.974834,60.046917 
	C36.974834,60.046917 37.024616,60.094280 36.799698,60.211491 
	C36.320927,60.495365 36.128773,60.715813 35.999321,60.995216 
	C36.000324,61.000393 35.987911,60.994938 35.683121,61.006184 
	C34.971668,61.018551 34.565014,61.019676 34.158356,61.020802 
z"/>
<path fill="#E6F1F9" opacity="1.000000" stroke="none" 
	d="
M63.131512,80.842346 
	C62.439388,80.843353 61.747261,80.844353 60.715378,80.784760 
	C60.130363,79.073929 59.885101,77.423706 59.780838,75.451111 
	C61.031055,76.043159 62.140282,76.957581 63.307579,78.710846 
	C63.287609,79.980576 63.209560,80.411461 63.131512,80.842346 
z"/>
<path fill="#CB77F9" opacity="1.000000" stroke="none" 
	d="
M33.175575,48.989246 
	C32.687836,45.794346 34.312313,44.756508 37.498528,45.305046 
	C37.508785,45.987335 37.240402,46.393589 36.951546,47.024014 
	C36.878132,47.542919 36.789135,47.826336 36.297287,48.095665 
	C35.012188,48.391685 34.093880,48.690464 33.175575,48.989246 
z"/>
<path fill="#9659F7" opacity="1.000000" stroke="none" 
	d="
M37.993324,50.971878 
	C38.240479,51.433228 38.487637,51.894573 38.860832,52.585793 
	C37.471558,52.762878 35.956242,52.710091 34.303741,51.992447 
	C34.992355,50.800900 35.818157,50.274204 36.732800,49.977341 
	C37.212204,50.462074 37.602764,50.716976 37.993324,50.971878 
z"/>
<path fill="#469ABD" opacity="1.000000" stroke="none" 
	d="
M51.555733,81.020676 
	C52.004368,81.098679 52.002254,81.545456 52.001358,81.768753 
	C51.551365,81.997849 51.102268,82.003654 50.316032,82.019119 
	C47.583046,82.011696 45.187202,81.994598 42.340271,81.962097 
	C41.889191,81.946701 41.981441,81.498032 41.995483,81.269440 
	C45.042049,81.008133 48.074574,80.975410 51.555733,81.020676 
z"/>
<path fill="#4FC5A7" opacity="1.000000" stroke="none" 
	d="
M69.211586,50.027153 
	C67.749153,50.672329 66.286720,51.317501 64.419861,51.597313 
	C64.018227,50.830536 64.021027,50.429123 64.255669,50.037628 
	C64.487503,50.047546 64.950966,50.023201 65.288116,50.054195 
	C66.074913,50.052727 66.524551,50.020264 67.346962,49.995239 
	C68.217018,50.010841 68.714302,50.018997 69.211586,50.027153 
z"/>
<path fill="#8DEAAC" opacity="1.000000" stroke="none" 
	d="
M64.950966,50.023201 
	C64.950966,50.023201 64.487503,50.047546 63.972549,50.026928 
	C63.269737,50.023254 63.081879,50.040199 62.894016,50.057144 
	C62.894016,50.057144 62.953659,50.016460 62.877239,49.851227 
	C62.653095,49.426739 62.448841,49.224613 62.188049,49.079620 
	C62.889893,48.391727 63.591732,47.703831 64.792404,47.240318 
	C65.177811,48.317532 65.064392,49.170368 64.950966,50.023201 
z"/>
<path fill="#FCE5E8" opacity="1.000000" stroke="none" 
	d="
M37.187096,60.282269 
	C37.694988,59.356091 38.415142,58.665264 39.479359,57.960552 
	C39.996601,57.951622 40.169781,57.956581 40.663635,58.346153 
	C41.037758,59.487297 41.091209,60.243832 41.144661,61.000362 
	C40.623119,61.401901 40.101574,61.803440 39.337780,61.819347 
	C39.180668,60.780743 39.265808,60.127766 39.350948,59.474792 
	C38.911549,59.814335 38.472145,60.153873 38.032745,60.493416 
	C37.821613,60.501480 37.610485,60.509548 37.187096,60.282269 
z"/>
<path fill="#BA65F8" opacity="1.000000" stroke="none" 
	d="
M36.972023,46.799847 
	C37.240402,46.393589 37.508785,45.987335 37.886993,45.364296 
	C39.225822,45.211922 40.454830,45.276329 41.630119,45.779549 
	C41.035450,46.843990 40.494492,47.469612 39.649841,47.967888 
	C38.554775,47.493645 37.763401,47.146744 36.972023,46.799847 
z"/>
<path fill="#3DA3CC" opacity="1.000000" stroke="none" 
	d="
M74.876007,48.801029 
	C75.014503,50.785019 75.032661,52.563805 75.091621,54.794807 
	C75.076851,55.578728 75.021278,55.910435 74.940964,56.492279 
	C74.740067,56.770191 74.563919,56.797955 74.123383,56.867226 
	C73.863373,54.236225 73.867744,51.563725 73.945435,48.448292 
	C74.311569,48.143311 74.557205,48.340130 74.876007,48.801029 
z"/>
<path fill="#A65DF6" opacity="1.000000" stroke="none" 
	d="
M39.953533,48.095238 
	C40.494492,47.469612 41.035450,46.843990 41.857845,46.074379 
	C42.421165,46.737007 42.703049,47.543621 42.922581,48.687412 
	C42.193714,49.029327 41.527203,49.034065 40.452560,48.809418 
	C40.044426,48.580032 39.953533,48.095238 39.953533,48.095238 
z"/>
<path fill="#BEF0D5" opacity="1.000000" stroke="none" 
	d="
M65.288116,50.054195 
	C65.064392,49.170368 65.177811,48.317532 65.148346,47.232368 
	C65.005447,47.000042 65.299088,46.933929 65.852615,46.996407 
	C66.944984,47.049747 67.483841,47.040607 68.004150,47.349930 
	C67.648468,48.441525 67.311333,49.214664 66.974190,49.987801 
	C66.524551,50.020264 66.074913,50.052727 65.288116,50.054195 
z"/>
<path fill="#6AD6AE" opacity="1.000000" stroke="none" 
	d="
M67.346962,49.995239 
	C67.311333,49.214664 67.648468,48.441525 68.269897,47.339550 
	C68.730972,46.995140 68.907761,46.979568 69.084541,46.964001 
	C69.297386,47.868507 69.510223,48.773018 69.467323,49.852341 
	C68.714302,50.018997 68.217018,50.010841 67.346962,49.995239 
z"/>
<path fill="#B16BF8" opacity="1.000000" stroke="none" 
	d="
M36.643955,49.747509 
	C35.818157,50.274204 34.992355,50.800900 34.061111,51.699440 
	C33.656960,51.271957 33.358257,50.472626 33.117565,49.331268 
	C34.093880,48.690464 35.012188,48.391685 36.297935,48.371269 
	C36.658241,49.015594 36.651096,49.381550 36.643955,49.747509 
z"/>
<path fill="#F13C56" opacity="1.000000" stroke="none" 
	d="
M41.428101,60.998402 
	C41.091209,60.243832 41.037758,59.487297 40.923374,58.354752 
	C41.567966,58.763954 42.273487,59.549164 42.912170,60.666634 
	C42.467400,60.998074 42.089470,60.997257 41.428101,60.998402 
z"/>
<path fill="#86E4AA" opacity="1.000000" stroke="none" 
	d="
M68.993851,58.683487 
	C68.444000,59.184658 67.902023,59.372772 66.841187,59.790352 
	C65.871887,60.012867 65.421440,60.005917 64.970985,59.998970 
	C66.314568,59.456123 67.658142,58.913277 68.993851,58.683487 
z"/>
<path fill="#FCB83C" opacity="1.000000" stroke="none" 
	d="
M39.824596,71.058403 
	C40.336285,71.034698 40.847969,71.010994 41.743523,70.966293 
	C41.951370,71.899956 41.775356,72.854614 41.298584,73.915192 
	C40.997822,74.021103 41.045837,74.020332 40.967850,73.706352 
	C40.534775,72.614380 40.179688,71.836395 39.824596,71.058403 
z"/>
<path fill="#F3455C" opacity="1.000000" stroke="none" 
	d="
M34.095108,61.373779 
	C34.565014,61.019676 34.971668,61.018551 35.556019,61.312340 
	C35.758575,62.029762 35.783440,62.452278 35.808304,62.874794 
	C35.409294,63.186798 35.010281,63.498806 34.611271,63.810810 
	C34.418137,63.116127 34.224998,62.421440 34.095108,61.373779 
z"/>
<path fill="#7BE0A9" opacity="1.000000" stroke="none" 
	d="
M65.033203,61.998646 
	C64.834679,62.015701 64.636162,62.032761 64.140549,62.084480 
	C63.323944,61.847446 62.804420,61.575745 62.284897,61.304047 
	C62.629402,60.915142 62.973904,60.526237 63.758736,60.400124 
	C64.477112,61.108158 64.755157,61.553402 65.033203,61.998646 
z"/>
<path fill="#B1E8CC" opacity="1.000000" stroke="none" 
	d="
M65.337280,61.938843 
	C64.755157,61.553402 64.477112,61.108158 64.063614,60.437519 
	C64.101402,60.173744 64.274643,60.135368 64.709427,60.047977 
	C65.421440,60.005917 65.871887,60.012867 66.660164,60.019897 
	C66.545784,60.639664 66.093575,61.259354 65.337280,61.938843 
z"/>
<path fill="#FCB658" opacity="1.000000" stroke="none" 
	d="
M36.412025,74.865036 
	C36.025043,74.799744 36.021580,74.416077 36.436295,74.194649 
	C38.249287,73.988922 39.647560,74.004623 41.045837,74.020332 
	C41.045837,74.020332 40.997822,74.021103 40.997551,73.996872 
	C39.597855,74.291870 38.198429,74.611092 36.412025,74.865036 
z"/>
<path fill="#8DEAAC" opacity="1.000000" stroke="none" 
	d="
M68.890015,46.686256 
	C68.907761,46.979568 68.730972,46.995140 68.288437,47.021091 
	C67.483841,47.040607 66.944984,47.049747 66.001801,47.016239 
	C66.630135,46.785233 67.662811,46.596870 68.890015,46.686256 
z"/>
<path fill="#F9B9C2" opacity="1.000000" stroke="none" 
	d="
M36.127884,62.873962 
	C35.783440,62.452278 35.758575,62.029762 35.860809,61.301094 
	C35.987911,60.994938 36.000324,61.000393 36.304043,60.845615 
	C36.744755,60.510689 36.881752,60.330536 37.018753,60.150387 
	C37.189339,60.780090 37.359924,61.409790 37.305573,62.500031 
	C36.869576,62.931423 36.658524,62.902279 36.127884,62.873962 
z"/>
<path fill="#6AD6AE" opacity="1.000000" stroke="none" 
	d="
M62.919201,50.357208 
	C63.081879,50.040199 63.269737,50.023254 63.740715,50.017006 
	C64.021027,50.429123 64.018227,50.830536 64.021111,51.532852 
	C63.665993,51.441589 63.305191,51.049431 62.919201,50.357208 
z"/>
<path fill="#6AD6AE" opacity="1.000000" stroke="none" 
	d="
M62.217598,49.312004 
	C62.448841,49.224613 62.653095,49.426739 62.894920,49.882702 
	C62.659336,50.015274 62.412048,49.836933 62.217598,49.312004 
z"/>
<path fill="#9BECBA" opacity="1.000000" stroke="none" 
	d="
M72.750687,57.116993 
	C72.838600,57.337059 72.623344,57.580425 72.121140,57.874195 
	C72.103401,57.720440 72.307838,57.459003 72.750687,57.116993 
z"/>
<path fill="#11637A" opacity="1.000000" stroke="none" 
	d="
M68.082596,76.313065 
	C67.247429,75.985817 66.412254,75.658569 65.285004,74.891586 
	C64.995667,74.257042 64.998413,74.062218 65.001160,73.867393 
	C65.001160,73.867393 65.486221,73.798439 65.721695,73.730667 
	C66.711739,73.781143 67.466309,73.899391 68.599838,74.371155 
	C68.966187,75.098198 68.953568,75.471710 68.721779,75.953934 
	C68.502617,76.062645 68.082596,76.313065 68.082596,76.313065 
z"/>
<path fill="#147B99" opacity="1.000000" stroke="none" 
	d="
M64.602417,73.687485 
	C64.998413,74.062218 64.995667,74.257042 64.980499,74.744263 
	C64.034203,74.770317 63.100327,74.503975 61.880936,73.983337 
	C62.464840,73.655220 63.334259,73.581398 64.602417,73.687485 
z"/>
<path fill="#45C1AB" opacity="1.000000" stroke="none" 
	d="
M72.807724,79.925758 
	C72.807716,79.925758 72.451820,79.998665 71.848526,80.012268 
	C70.398476,80.031830 69.551735,80.037773 68.509987,79.932571 
	C68.082123,79.604828 67.957329,79.337685 67.940620,79.019981 
	C67.940620,79.019981 67.960747,79.018837 68.321442,79.012238 
	C69.477890,78.316254 70.273636,77.626862 71.327950,76.799118 
	C71.892647,76.420120 72.198784,76.179459 72.504913,75.938805 
	C72.504913,75.938805 72.491386,75.889191 72.491470,75.863571 
	C72.894951,76.669807 73.298347,77.501663 73.817001,78.658577 
	C73.932251,78.983627 73.968437,79.000183 73.711792,79.052704 
	C73.239334,79.378731 73.023529,79.652245 72.807724,79.925758 
z"/>
<path fill="#22898B" opacity="1.000000" stroke="none" 
	d="
M72.333328,75.635071 
	C72.198784,76.179459 71.892647,76.420120 71.311768,76.807877 
	C71.037025,76.954971 71.006325,76.973167 70.825172,76.726631 
	C70.076324,76.268471 69.508636,76.056854 68.940941,75.845230 
	C68.953568,75.471710 68.966187,75.098198 68.975616,74.444763 
	C70.035538,74.553673 71.098640,74.942505 72.333328,75.635071 
z"/>
<path fill="#167794" opacity="1.000000" stroke="none" 
	d="
M73.115234,79.971611 
	C73.023529,79.652245 73.239334,79.378731 73.709518,79.042404 
	C73.987206,79.161995 74.010536,79.344414 74.037598,79.803864 
	C73.835129,80.059761 73.628937,80.038612 73.115234,79.971611 
z"/>
<path fill="#389EA5" opacity="1.000000" stroke="none" 
	d="
M68.704987,80.043716 
	C69.551735,80.037773 70.398476,80.031830 71.669479,80.042923 
	C71.316475,80.402290 70.539207,80.744614 69.434372,81.131439 
	C69.106812,81.175949 68.949516,80.906960 68.841873,80.626572 
	C68.734238,80.346191 68.704987,80.043716 68.704987,80.043716 
z"/>
<path fill="#B3CEE8" opacity="1.000000" stroke="none" 
	d="
M68.509987,79.932571 
	C68.704987,80.043716 68.734238,80.346191 68.757454,80.495628 
	C68.387871,80.745605 67.995079,80.846153 67.312531,81.039413 
	C65.934006,81.088326 64.845238,81.044518 63.443985,80.921524 
	C63.209560,80.411461 63.287609,79.980576 63.537861,78.913635 
	C64.879150,78.529991 66.048241,78.782410 67.578972,79.027405 
	C67.957329,79.337685 68.082123,79.604828 68.509987,79.932571 
z"/>
<path fill="#FEEFC8" opacity="1.000000" stroke="none" 
	d="
M40.967850,73.706352 
	C39.647560,74.004623 38.249287,73.988922 36.432671,74.002838 
	C37.061802,73.037331 38.109272,72.042213 39.490669,71.052750 
	C40.179688,71.836395 40.534775,72.614380 40.967850,73.706352 
z"/>
<path fill="#7EDFB9" opacity="1.000000" stroke="none" 
	d="
M71.053207,76.946220 
	C70.273636,77.626862 69.477890,78.316254 68.321808,79.003342 
	C67.977036,78.574516 67.992584,78.147987 68.421127,77.358551 
	C69.558197,76.988159 70.282257,76.980659 71.006325,76.973160 
	C71.006325,76.973167 71.037025,76.954971 71.053207,76.946220 
z"/>
<path fill="#5EC3AA" opacity="1.000000" stroke="none" 
	d="
M70.825172,76.726624 
	C70.282257,76.980659 69.558197,76.988159 68.475479,77.043083 
	C68.116837,77.090515 68.088623,76.700760 68.085609,76.506912 
	C68.082596,76.313065 68.502617,76.062645 68.721779,75.953934 
	C69.508636,76.056854 70.076324,76.268471 70.825172,76.726624 
z"/>
<path fill="#FAF7FD" opacity="1.000000" stroke="none" 
	d="
M36.732800,49.977341 
	C36.651096,49.381550 36.658241,49.015594 36.664734,48.374031 
	C36.789135,47.826336 36.878132,47.542919 36.951546,47.024014 
	C37.763401,47.146744 38.554775,47.493645 39.649841,47.967888 
	C39.953533,48.095238 40.044426,48.580032 40.119110,48.815262 
	C39.587708,49.541481 38.981625,50.032471 38.184433,50.747669 
	C37.602764,50.716976 37.212204,50.462074 36.732800,49.977341 
z"/>
<path fill="#F3455C" opacity="1.000000" stroke="none" 
	d="
M38.020462,60.731812 
	C38.472145,60.153873 38.911549,59.814335 39.350948,59.474792 
	C39.265808,60.127766 39.180668,60.780743 38.995148,61.729370 
	C38.599243,61.673416 38.303711,61.321815 38.020462,60.731812 
z"/>
<path fill="#F3455C" opacity="1.000000" stroke="none" 
	d="
M37.006111,60.173645 
	C36.881752,60.330536 36.744755,60.510689 36.303040,60.840439 
	C36.128773,60.715813 36.320927,60.495365 36.776947,60.237236 
	C36.979118,60.145771 36.993469,60.196903 37.006111,60.173645 
z"/>
</svg>